<?xml version='1.0' encoding='utf-8'?>
<svg xmlns="http://www.w3.org/2000/svg" enable-background="new 0 0 5000 892.7058" version="1.1" viewBox="0 0 5e3 892.71"> <path d="m49.686 99.222v-50.027h49.617v-38.888c-8.3744-1.2973-84.981-0.9762-89.454 0.2941v88.62h39.838zm-39.838 694.26v88.62c4.473 1.2704 81.08 1.5915 89.454 0.2941v-38.888h-49.617v-50.027h-39.838zm4980.3-694.26v-88.62c-4.4727-1.2704-81.08-1.5915-89.454-0.2941v38.888h49.617v50.027h39.837zm-39.837 694.26v50.027h-49.617v38.888c8.374 1.2974 84.981 0.9763 89.454-0.2941v-88.62h-39.837zm-2538.9-783.57v39.765h49.762v49.6h77.67v-49.6h49.762v-39.765h-177.19zm177.19 872.87v-39.765h-49.762v-49.6h-77.67v49.6h-49.762v39.765h177.19zm-188.11-732.94v-39.992h-39.126v39.992h39.126zm-39.126 593v39.992h39.126v-39.992h-39.126zm277.27-593v-39.992h-39.126v39.992h39.126zm-39.126 593v39.992h39.126v-39.992h-39.126zm-148.77-632.92h-39.394v39.804h39.394v-39.804zm0 633.03h-39.394v39.804h39.394v-39.804zm98.513-593.23h39.394v-39.804h-39.394v39.804zm0 633.03h39.394v-39.804h-39.394v39.804zm-2489.3-633.06h39.125v-39.959h-39.125v39.959zm0 633.25h39.125v-39.959h-39.125v39.959zm4880-673.21h-39.126v39.959h39.126v-39.959zm0 633.25h-39.126v39.959h39.126v-39.959zm-4830.1-633.27v40.111h39.102v-40.111h-39.102zm39.102 673.25v-40.111h-39.102v40.111h39.102zm4702-673.25v40.111h39.102v-40.111h-39.102zm39.102 673.25v-40.111h-39.102v40.111h39.102zm-4580.6-733.8h39.245v-39.116h-39.245v39.116zm0 833.46h39.245v-39.116h-39.245v39.116zm4380.9-872.58h-39.246v39.116h39.246v-39.116zm0 833.46h-39.246v39.116h39.246v-39.116zm-2489.8-833.52h-39.173v39.224h39.173v-39.224zm0 833.47h-39.173v39.224h39.173v-39.224zm598.62-794.25h39.173v-39.224h-39.173v39.224zm0 833.47h39.173v-39.224h-39.173v39.224zm-2739.2-822.22v38.562c11.487 1.154 34.656 0.779 39.156-0.5641v-37.998h-39.156zm39.156 771.74v-37.998c-4.4993-1.3431-27.668-1.7181-39.156-0.5641v38.562h39.156zm4801.5-771.74v37.998c4.499 1.3431 27.668 1.7181 39.155 0.5641v-38.562h-39.155zm39.155 771.74v-38.562c-11.487-1.154-34.656-0.7789-39.155 0.5641v37.998h39.155zm-4790.9-733.07v-38.515h-39.295v38.515h39.295zm-39.295 694.4v38.515h39.295v-38.515h-39.295zm4780.7-694.4v-38.515h-39.295v38.515h39.295zm-39.295 694.4v38.515h39.295v-38.515h-39.295zm-4651.9-694.31v-39.204h-39.122v39.204h39.122zm-39.122 694.21v39.204h39.122v-39.204h-39.122zm4679.9-694.21v-39.204h-39.123v39.204h39.123zm-39.122 694.21v39.204h39.123v-39.204h-39.123zm-2489.3-733.42v39.061h39.255v-39.061h-39.255zm39.255 772.62v-39.061h-39.255v39.061h39.255zm298.45-772.62v39.061h39.255v-39.061h-39.255zm39.255 772.62v-39.061h-39.255v39.061h39.255zm-287.88-771.97h-39.394v38.477h39.394v-38.477zm0 732.85h-39.394v38.477h39.394v-38.477zm198.79-694.37h39.394v-38.477h-39.394v38.477zm0 732.85h39.394v-38.477h-39.394v38.477zm-148.79-732.84v-38.569h-39.03v38.569h39.03zm-39.03 694.35v38.569h39.03v-38.569h-39.03zm176.86-694.35v-38.569h-39.03v38.569h39.03zm-39.03 694.35v38.569h39.03v-38.569h-39.03zm-2450.1-633.06h-39.118v38.604h39.118v-38.604zm0 533.16h-39.118v38.605h39.118v-38.605zm4801.5-494.56h39.118v-38.604h-39.118v38.604zm0 533.16h39.118v-38.605h-39.118v38.605zm-2450.2-533.11v-38.776h-39.12v38.776h39.12zm-39.12 494.44v38.776h39.12v-38.776h-39.12zm177.21-494.44v-38.776h-39.12v38.776h39.12zm-39.12 494.44v38.776h39.12v-38.776h-39.12zm-2500.3-383.53c-7.0473 0-13.456-0.1281-19.858 0.0357-6.507 0.1666-13.083-0.7359-19.451 0.5766v38.848h39.308v-39.46zm0 233.16h-39.308v38.848c6.3675 1.3124 12.944 0.41 19.451 0.5765 6.4014 0.1639 12.81 0.0358 19.858 0.0358v-39.461zm4901.6-193.7h39.308v-38.848c-6.3672-1.3125-12.943-0.41-19.45-0.5766-6.4014-0.1638-12.81-0.0357-19.858-0.0357v39.46zm0 233.16c7.0474 0 13.456 0.1281 19.858-0.0358 6.5068-0.1665 13.083 0.7359 19.45-0.5765v-38.848h-39.308v39.461zm-4950.4-182.6h48.618v-40.128h-48.552v-59.771h59.204v49.445h39.474v-89.554h-99.127v-109.93h49.036v-40.491h-48.936v-109.57h109.18v48.974h40.005v-49.041h110.09v99.099h89.53v-39.355h-49.199v-59.599h59.543v49.019h40.027v-49.079h1711.9v49.135h39.79v-49.16h59.904v59.36c-16.331 0.6826-32.833-0.0953-49.543 0.4383v39.296h89.611v-99.002h109.89v49.057h39.784v-49.129h198.77v49.129h39.784v-49.057h109.89v99.002h89.611v-39.296c-16.71-0.5335-33.212 0.2444-49.543-0.4383v-59.36h59.904v49.16h39.79v-49.135h1711.9v49.079h40.027v-49.019h59.544v59.599h-49.199v39.355h89.53v-99.099h110.09v49.041h40.005v-48.974h109.18v109.57h-48.936v40.491h49.036v109.93h-99.127v89.554h39.475v-49.445h59.205v59.771h-48.553v40.128h48.619v92.584h-48.619v40.128h48.553v59.771h-59.205v-49.445h-39.475v89.554h99.127v109.93h-49.036v40.491h48.936v109.57h-109.18v-48.974h-40.005v49.041h-110.09v-99.099h-89.53v39.355h49.199v59.599h-59.544v-49.019h-40.027v49.079h-1711.9v-49.135h-39.79v49.16h-59.904v-59.36c16.331-0.6826 32.833 0.0953 49.543-0.4383v-39.296h-89.611v99.002h-109.89v-49.057h-39.784v49.129h-198.77v-49.129h-39.784v49.057h-109.89v-99.002h-89.611v39.296c16.71 0.5336 33.212-0.2443 49.543 0.4383v59.36h-59.904v-49.16h-39.79v49.135h-1711.9v-49.079h-40.027v49.019h-59.543v-59.599h49.199v-39.355h-89.53v99.099h-110.09v-49.041h-40.005v48.974h-109.18v-109.57h48.936v-40.491h-49.035v-109.93h99.127v-89.554h-39.474v49.445h-59.204v-59.771h48.552v-40.128h-48.618v-92.584zm2460.7-290.8v40.593h77.767v-40.593h-77.767zm77.767 674.18v-40.593h-77.767v40.593h77.767zm2450.4-373.57h-48.72v-49.743h-49.627v-110.19h99.275v-89.457h-39.452v48.504h-60.079v-48.914h-50.158v-50.443h-49.423v-59.952h49.007v-39.791h-89.157v99.209h-110.23v-49.273h-49.611v-49.842h-1691.9v49.527h-50.204v49.763h-109.66v-99.293h-89.904v39.278h49.272v59.934h-49.43v50.738h-50v49.126h-60.092v-48.776h-78.251v48.776h-60.092v-49.126h-50v-50.738h-49.43v-59.934h49.272v-39.278h-89.904v99.293h-109.66v-49.763h-50.204v-49.527h-1691.9v49.842h-49.612v49.273h-110.23v-99.209h-89.157v39.791h49.007v59.952h-49.423v50.443h-50.159v48.914h-60.079v-48.504h-39.452v89.457h99.275v110.19h-49.627v49.743h-48.72v72.959h48.72v49.743h49.627v110.19h-99.275v89.457h39.452v-48.504h60.079v48.914h50.159v50.443h49.423v59.952h-49.007v39.791h89.157v-99.209h110.23v49.273h49.612v49.842h1691.9v-49.527h50.204v-49.763h109.66v99.293h89.904v-39.278h-49.272v-59.934h49.43v-50.738h50v-49.126h60.092v48.776h78.251v-48.776h60.092v49.126h50v50.738h49.43v59.934h-49.272v39.278h89.904v-99.293h109.66v49.763h50.204v49.527h1691.9v-49.842h49.611v-49.273h110.23v99.209h89.157v-39.791h-49.007v-59.952h49.423v-50.443h50.158v-48.914h60.079v48.504h39.452v-89.457h-99.275v-110.19h49.627v-49.743h48.72v-72.959z" fill="#D4AF37"/> </svg>